<svg width="398" height="398" viewBox="0 0 398 398" fill="none" xmlns="http://www.w3.org/2000/svg">
<rect x="2.5" y="2.5" width="393" height="393" rx="57.5" stroke="#002C9B" stroke-width="5"/>
<path d="M303.285 8.99997C312.952 8.99997 323.619 14 335.285 24C347.285 34 353.285 42.1666 353.285 48.5C353.285 69.5 348.285 106 338.285 158C328.618 209.667 316.118 259.167 300.785 306.5C285.452 353.833 271.618 377.5 259.285 377.5C254.285 377.5 247.785 374.833 239.785 369.5C231.785 363.833 226.452 357.333 223.785 350C221.118 342.333 215.952 326.667 208.285 303C190.618 248.667 173.952 203.667 158.285 168C155.952 178 152.785 192.167 148.785 210.5C145.118 228.833 142.118 243.333 139.785 254C137.452 264.333 134.618 277 131.285 292C127.952 306.667 124.952 318.333 122.285 327C119.952 335.667 117.285 344.333 114.285 353C108.952 369.333 103.952 377.5 99.2852 377.5C92.6185 377.5 83.9518 371.5 73.2852 359.5C62.6185 347.167 57.2852 336.667 57.2852 328C57.2852 319 66.7852 272.5 85.7852 188.5C105.118 104.5 115.618 51.8333 117.285 30.5C118.285 17.8333 122.118 11.5 128.785 11.5C134.452 11.5 141.618 14.8333 150.285 21.5C159.285 28.1666 166.952 36.3333 173.285 46C179.952 55.3333 191.785 86.1667 208.785 138.5C225.785 190.833 239.285 228.333 249.285 251C262.285 212.333 274.285 154 285.285 76C289.619 45 292.452 26.1666 293.785 19.5C295.118 12.5 298.285 8.99997 303.285 8.99997Z" fill="#002C9B"/>
</svg>
