<svg width="325" height="397" viewBox="0 0 325 397" fill="none" xmlns="http://www.w3.org/2000/svg">
<g filter="url(#filter0_d_1_1066)">
<mask id="path-1-outside-1_1_1066" maskUnits="userSpaceOnUse" x="4" y="0" width="317" height="389" fill="black">
<rect fill="white" x="4" width="317" height="389"/>
<path d="M260.285 9.99997C269.952 9.99997 280.619 15 292.285 25C304.285 35 310.285 43.1666 310.285 49.5C310.285 70.5 305.285 107 295.285 159C285.618 210.667 273.118 260.167 257.785 307.5C242.452 354.833 228.618 378.5 216.285 378.5C211.285 378.5 204.785 375.833 196.785 370.5C188.785 364.833 183.452 358.333 180.785 351C178.118 343.333 172.952 327.667 165.285 304C147.618 249.667 130.952 204.667 115.285 169C112.952 179 109.785 193.167 105.785 211.5C102.118 229.833 99.1185 244.333 96.7852 255C94.4518 265.333 91.6185 278 88.2852 293C84.9518 307.667 81.9518 319.333 79.2852 328C76.9518 336.667 74.2852 345.333 71.2852 354C65.9518 370.333 60.9518 378.5 56.2852 378.5C49.6185 378.5 40.9518 372.5 30.2852 360.5C19.6185 348.167 14.2852 337.667 14.2852 329C14.2852 320 23.7852 273.5 42.7852 189.5C62.1185 105.5 72.6185 52.8333 74.2852 31.5C75.2852 18.8333 79.1185 12.5 85.7852 12.5C91.4518 12.5 98.6185 15.8333 107.285 22.5C116.285 29.1666 123.952 37.3333 130.285 47C136.952 56.3333 148.785 87.1667 165.785 139.5C182.785 191.833 196.285 229.333 206.285 252C219.285 213.333 231.285 155 242.285 77C246.619 46 249.452 27.1666 250.785 20.5C252.118 13.5 255.285 9.99997 260.285 9.99997Z"/>
</mask>
<path d="M260.285 9.99997C269.952 9.99997 280.619 15 292.285 25C304.285 35 310.285 43.1666 310.285 49.5C310.285 70.5 305.285 107 295.285 159C285.618 210.667 273.118 260.167 257.785 307.5C242.452 354.833 228.618 378.5 216.285 378.5C211.285 378.5 204.785 375.833 196.785 370.5C188.785 364.833 183.452 358.333 180.785 351C178.118 343.333 172.952 327.667 165.285 304C147.618 249.667 130.952 204.667 115.285 169C112.952 179 109.785 193.167 105.785 211.5C102.118 229.833 99.1185 244.333 96.7852 255C94.4518 265.333 91.6185 278 88.2852 293C84.9518 307.667 81.9518 319.333 79.2852 328C76.9518 336.667 74.2852 345.333 71.2852 354C65.9518 370.333 60.9518 378.5 56.2852 378.5C49.6185 378.5 40.9518 372.5 30.2852 360.5C19.6185 348.167 14.2852 337.667 14.2852 329C14.2852 320 23.7852 273.5 42.7852 189.5C62.1185 105.5 72.6185 52.8333 74.2852 31.5C75.2852 18.8333 79.1185 12.5 85.7852 12.5C91.4518 12.5 98.6185 15.8333 107.285 22.5C116.285 29.1666 123.952 37.3333 130.285 47C136.952 56.3333 148.785 87.1667 165.785 139.5C182.785 191.833 196.285 229.333 206.285 252C219.285 213.333 231.285 155 242.285 77C246.619 46 249.452 27.1666 250.785 20.5C252.118 13.5 255.285 9.99997 260.285 9.99997Z" fill="#002C9B"/>
<path d="M292.285 25L285.777 32.5925L285.83 32.6377L285.883 32.6822L292.285 25ZM295.285 159L285.465 157.112L285.46 157.136L285.456 157.161L295.285 159ZM257.785 307.5L267.298 310.582L267.298 310.582L257.785 307.5ZM196.785 370.5L191.005 378.66L191.12 378.742L191.238 378.821L196.785 370.5ZM180.785 351L171.34 354.285L171.363 354.351L171.387 354.417L180.785 351ZM165.285 304L174.798 300.918L174.795 300.908L165.285 304ZM115.285 169L124.441 164.978L112.368 137.494L105.547 166.728L115.285 169ZM105.785 211.5L96.015 209.368L95.9964 209.453L95.9794 209.539L105.785 211.5ZM96.7852 255L106.54 257.203L106.547 257.17L106.554 257.137L96.7852 255ZM88.2852 293L98.0365 295.216L98.0418 295.193L98.047 295.169L88.2852 293ZM79.2852 328L69.7274 325.059L69.6752 325.229L69.629 325.4L79.2852 328ZM71.2852 354L61.8353 350.729L61.8065 350.812L61.7791 350.896L71.2852 354ZM30.2852 360.5L22.7215 367.042L22.7659 367.093L22.8111 367.144L30.2852 360.5ZM42.7852 189.5L33.0399 187.257L33.0357 187.275L33.0316 187.294L42.7852 189.5ZM74.2852 31.5L64.3162 30.713L64.3155 30.7211L74.2852 31.5ZM107.285 22.5L101.188 30.4262L101.26 30.4815L101.333 30.5356L107.285 22.5ZM130.285 47L121.921 52.4802L122.031 52.6486L122.148 52.8123L130.285 47ZM165.785 139.5L175.296 136.41L175.296 136.41L165.785 139.5ZM206.285 252L197.136 256.036L207.545 279.631L215.764 255.187L206.285 252ZM242.285 77L252.187 78.3964L252.189 78.3844L242.285 77ZM250.785 20.5L260.591 22.4611L260.6 22.4162L260.609 22.3711L250.785 20.5ZM260.285 9.99997V20C266.507 20 274.914 23.2814 285.777 32.5925L292.285 25L298.793 17.4074C286.323 6.7186 273.396 -2.98023e-05 260.285 -2.98023e-05V9.99997ZM292.285 25L285.883 32.6822C291.558 37.4111 295.39 41.3653 297.726 44.5457C300.164 47.8641 300.285 49.4 300.285 49.5H310.285H320.285C320.285 43.2667 317.406 37.5525 313.844 32.7042C310.181 27.718 305.012 22.5889 298.687 17.3178L292.285 25ZM310.285 49.5H300.285C300.285 69.4343 295.472 105.076 285.465 157.112L295.285 159L305.105 160.888C315.098 108.924 320.285 71.5657 320.285 49.5H310.285ZM295.285 159L285.456 157.161C275.863 208.43 263.466 257.514 248.272 304.418L257.785 307.5L267.298 310.582C282.771 262.819 295.374 212.903 305.115 160.839L295.285 159ZM257.785 307.5L248.272 304.418C240.679 327.858 233.649 344.802 227.277 355.704C224.082 361.169 221.321 364.645 219.109 366.646C216.891 368.651 216.003 368.5 216.285 368.5V378.5V388.5C222.734 388.5 228.2 385.39 232.524 381.479C236.853 377.564 240.821 372.165 244.544 365.796C252.005 353.031 259.558 334.475 267.298 310.582L257.785 307.5ZM216.285 378.5V368.5C214.376 368.5 209.966 367.269 202.332 362.179L196.785 370.5L191.238 378.821C199.604 384.398 208.194 388.5 216.285 388.5V378.5ZM196.785 370.5L202.565 362.34C195.798 357.546 191.995 352.564 190.183 347.583L180.785 351L171.387 354.417C174.909 364.102 181.772 372.12 191.005 378.66L196.785 370.5ZM180.785 351L190.23 347.715C187.605 340.167 182.471 324.604 174.798 300.918L165.285 304L155.772 307.082C163.433 330.73 168.632 346.5 171.34 354.285L180.785 351ZM165.285 304L174.795 300.908C157.068 246.39 140.287 201.053 124.441 164.978L115.285 169L106.129 173.022C121.617 208.28 138.169 252.943 155.775 307.092L165.285 304ZM115.285 169L105.547 166.728C103.197 176.798 100.018 191.02 96.015 209.368L105.785 211.5L115.555 213.632C119.552 195.314 122.707 181.202 125.024 171.272L115.285 169ZM105.785 211.5L95.9794 209.539C92.3175 227.848 89.3309 242.282 87.0162 252.863L96.7852 255L106.554 257.137C108.906 246.385 111.92 231.818 115.591 213.461L105.785 211.5ZM96.7852 255L87.0308 252.797C84.6941 263.146 81.8581 275.824 78.5233 290.831L88.2852 293L98.047 295.169C101.379 280.176 104.21 267.521 106.54 257.203L96.7852 255ZM88.2852 293L78.5338 290.784C75.225 305.343 72.2885 316.735 69.7274 325.059L79.2852 328L88.8429 330.941C91.6151 321.931 94.6786 309.991 98.0365 295.216L88.2852 293ZM79.2852 328L69.629 325.4C67.3579 333.836 64.7604 342.279 61.8353 350.729L71.2852 354L80.735 357.271C83.81 348.388 86.5458 339.497 88.9413 330.6L79.2852 328ZM71.2852 354L61.7791 350.896C59.1958 358.807 56.8987 364.063 55.0066 367.153C54.5568 367.888 54.177 368.422 53.8775 368.795C53.73 368.978 53.6122 369.111 53.5263 369.201C53.4838 369.245 53.451 369.277 53.4282 369.299C53.4054 369.32 53.3939 369.33 53.3941 369.33C53.3944 369.33 53.4077 369.318 53.4345 369.299C53.4613 369.279 53.5031 369.249 53.56 369.213C53.6731 369.14 53.8535 369.037 54.1019 368.93C54.6205 368.707 55.3709 368.5 56.2852 368.5V378.5V388.5C60.5387 388.5 63.9317 386.609 66.3012 384.608C68.631 382.639 70.5116 380.132 72.0637 377.597C75.1716 372.52 78.0412 365.526 80.7912 357.104L71.2852 354ZM56.2852 378.5V368.5C55.8557 368.5 54.0346 368.241 50.4773 365.778C47.0445 363.402 42.8082 359.536 37.7593 353.856L30.2852 360.5L22.8111 367.144C28.4288 373.464 33.8591 378.598 39.0931 382.222C44.2024 385.759 50.048 388.5 56.2852 388.5V378.5ZM30.2852 360.5L37.8488 353.958C27.5394 342.038 24.2852 333.899 24.2852 329H14.2852H4.28516C4.28516 341.434 11.6976 354.295 22.7215 367.042L30.2852 360.5ZM14.2852 329H24.2852C24.2852 327.75 24.7067 324.012 25.9231 316.906C27.0845 310.12 28.8418 300.957 31.2078 289.377C35.9369 266.229 43.044 233.683 52.5388 191.706L42.7852 189.5L33.0316 187.294C23.5264 229.317 16.3834 262.021 11.6125 285.373C9.22848 297.043 7.42328 306.442 6.20976 313.532C5.05112 320.301 4.28516 325.75 4.28516 329H14.2852ZM42.7852 189.5L52.5304 191.743C71.8003 108.018 82.5171 54.5214 84.2548 32.2789L74.2852 31.5L64.3155 30.7211C62.7199 51.1452 52.4367 102.982 33.0399 187.257L42.7852 189.5ZM74.2852 31.5L84.2541 32.287C84.7076 26.543 85.74 23.6262 86.4652 22.428C86.757 21.9458 86.8162 22.0484 86.4813 22.2504C86.1 22.4804 85.7743 22.5 85.7852 22.5V12.5V2.49997C78.5134 2.49997 72.8437 6.30821 69.3552 12.072C66.247 17.2071 64.8627 23.7903 64.3162 30.713L74.2852 31.5ZM85.7852 12.5V22.5C87.9743 22.5 92.8822 24.0371 101.188 30.4262L107.285 22.5L113.382 14.5738C104.355 7.6295 94.9294 2.49997 85.7852 2.49997V12.5ZM107.285 22.5L101.333 30.5356C109.354 36.4772 116.213 43.7691 121.921 52.4802L130.285 47L138.65 41.5197C131.69 30.8975 123.216 21.8561 113.237 14.4644L107.285 22.5ZM130.285 47L122.148 52.8123C124.623 56.2782 128.842 65.1207 134.824 80.708C140.651 95.8904 147.798 116.495 156.274 142.589L165.785 139.5L175.296 136.41C166.772 110.171 159.503 89.1929 153.496 73.542C147.645 58.2959 142.614 47.0551 138.422 41.1876L130.285 47ZM165.785 139.5L156.274 142.589C173.284 194.954 186.916 232.87 197.136 256.036L206.285 252L215.434 247.964C205.655 225.797 192.286 188.713 175.296 136.41L165.785 139.5ZM206.285 252L215.764 255.187C229.065 215.624 241.165 156.554 252.187 78.3964L242.285 77L232.383 75.6035C221.405 153.446 209.505 211.042 196.807 248.813L206.285 252ZM242.285 77L252.189 78.3844C256.541 47.249 259.329 28.7696 260.591 22.4611L250.785 20.5L240.979 18.5388C239.574 25.5637 236.696 44.7509 232.381 75.6156L242.285 77ZM250.785 20.5L260.609 22.3711C260.838 21.1648 261.102 20.3539 261.32 19.8454C261.536 19.3416 261.662 19.2388 261.576 19.3341C261.462 19.4593 261.203 19.6827 260.818 19.8477C260.447 20.0067 260.22 20 260.285 20V9.99997V-2.98023e-05C255.149 -2.98023e-05 250.347 1.93414 246.745 5.91583C243.455 9.55204 241.809 14.1785 240.962 18.6289L250.785 20.5Z" fill="white" mask="url(#path-1-outside-1_1_1066)"/>
</g>
<defs>
<filter id="filter0_d_1_1066" x="0.285156" y="0" width="324" height="396.5" filterUnits="userSpaceOnUse" color-interpolation-filters="sRGB">
<feFlood flood-opacity="0" result="BackgroundImageFix"/>
<feColorMatrix in="SourceAlpha" type="matrix" values="0 0 0 0 0 0 0 0 0 0 0 0 0 0 0 0 0 0 127 0" result="hardAlpha"/>
<feOffset dy="4"/>
<feGaussianBlur stdDeviation="2"/>
<feComposite in2="hardAlpha" operator="out"/>
<feColorMatrix type="matrix" values="0 0 0 0 0 0 0 0 0 0.172549 0 0 0 0 0.607843 0 0 0 0.68 0"/>
<feBlend mode="normal" in2="BackgroundImageFix" result="effect1_dropShadow_1_1066"/>
<feBlend mode="normal" in="SourceGraphic" in2="effect1_dropShadow_1_1066" result="shape"/>
</filter>
</defs>
</svg>
