<svg width="448" height="448" viewBox="0 0 448 448" fill="none" xmlns="http://www.w3.org/2000/svg">
<rect x="12.5" y="12.5" width="423" height="423" rx="72.5" stroke="#002C9B" stroke-width="25"/>
<path d="M328.285 34C337.952 34 348.619 39 360.285 49C372.285 59 378.285 67.1666 378.285 73.5C378.285 94.5 373.285 131 363.285 183C353.618 234.667 341.118 284.167 325.785 331.5C310.452 378.833 296.618 402.5 284.285 402.5C279.285 402.5 272.785 399.833 264.785 394.5C256.785 388.833 251.452 382.333 248.785 375C246.118 367.333 240.952 351.667 233.285 328C215.618 273.667 198.952 228.667 183.285 193C180.952 203 177.785 217.167 173.785 235.5C170.118 253.833 167.118 268.333 164.785 279C162.452 289.333 159.618 302 156.285 317C152.952 331.667 149.952 343.333 147.285 352C144.952 360.667 142.285 369.333 139.285 378C133.952 394.333 128.952 402.5 124.285 402.5C117.618 402.5 108.952 396.5 98.2852 384.5C87.6185 372.167 82.2852 361.667 82.2852 353C82.2852 344 91.7852 297.5 110.785 213.5C130.118 129.5 140.618 76.8333 142.285 55.5C143.285 42.8333 147.118 36.5 153.785 36.5C159.452 36.5 166.618 39.8333 175.285 46.5C184.285 53.1666 191.952 61.3333 198.285 71C204.952 80.3333 216.785 111.167 233.785 163.5C250.785 215.833 264.285 253.333 274.285 276C287.285 237.333 299.285 179 310.285 101C314.619 70 317.452 51.1666 318.785 44.5C320.118 37.5 323.285 34 328.285 34Z" fill="#002C9B"/>
</svg>
