<svg width="466" height="466" viewBox="0 0 466 466" fill="none" xmlns="http://www.w3.org/2000/svg">
<g filter="url(#filter0_d_1_1067)">
<rect x="19" y="15" width="428" height="428" rx="75" stroke="white" stroke-width="30" shape-rendering="crispEdges"/>
</g>
<path d="M337.285 39C346.952 39 357.619 44 369.285 54C381.285 64 387.285 72.1666 387.285 78.5C387.285 99.5 382.285 136 372.285 188C362.618 239.667 350.118 289.167 334.785 336.5C319.452 383.833 305.618 407.5 293.285 407.5C288.285 407.5 281.785 404.833 273.785 399.5C265.785 393.833 260.452 387.333 257.785 380C255.118 372.333 249.952 356.667 242.285 333C224.618 278.667 207.952 233.667 192.285 198C189.952 208 186.785 222.167 182.785 240.5C179.118 258.833 176.118 273.333 173.785 284C171.452 294.333 168.618 307 165.285 322C161.952 336.667 158.952 348.333 156.285 357C153.952 365.667 151.285 374.333 148.285 383C142.952 399.333 137.952 407.5 133.285 407.5C126.618 407.5 117.952 401.5 107.285 389.5C96.6185 377.167 91.2852 366.667 91.2852 358C91.2852 349 100.785 302.5 119.785 218.5C139.118 134.5 149.618 81.8333 151.285 60.5C152.285 47.8333 156.118 41.5 162.785 41.5C168.452 41.5 175.618 44.8333 184.285 51.5C193.285 58.1666 200.952 66.3333 207.285 76C213.952 85.3333 225.785 116.167 242.785 168.5C259.785 220.833 273.285 258.333 283.285 281C296.285 242.333 308.285 184 319.285 106C323.619 75 326.452 56.1666 327.785 49.5C329.118 42.5 332.285 39 337.285 39Z" fill="#002C9B"/>
<defs>
<filter id="filter0_d_1_1067" x="0" y="0" width="466" height="466" filterUnits="userSpaceOnUse" color-interpolation-filters="sRGB">
<feFlood flood-opacity="0" result="BackgroundImageFix"/>
<feColorMatrix in="SourceAlpha" type="matrix" values="0 0 0 0 0 0 0 0 0 0 0 0 0 0 0 0 0 0 127 0" result="hardAlpha"/>
<feOffset dy="4"/>
<feGaussianBlur stdDeviation="2"/>
<feComposite in2="hardAlpha" operator="out"/>
<feColorMatrix type="matrix" values="0 0 0 0 0 0 0 0 0 0 0 0 0 0 0 0 0 0 0.25 0"/>
<feBlend mode="normal" in2="BackgroundImageFix" result="effect1_dropShadow_1_1067"/>
<feBlend mode="normal" in="SourceGraphic" in2="effect1_dropShadow_1_1067" result="shape"/>
</filter>
</defs>
</svg>
