<svg width="317" height="389" viewBox="0 0 317 389" fill="none" xmlns="http://www.w3.org/2000/svg">
<mask id="path-1-outside-1_1_1066" maskUnits="userSpaceOnUse" x="0" y="0" width="317" height="389" fill="black">
<rect fill="white" width="317" height="389"/>
<path d="M256.285 9.99997C265.952 9.99997 276.619 15 288.285 25C300.285 35 306.285 43.1666 306.285 49.5C306.285 70.5 301.285 107 291.285 159C281.618 210.667 269.118 260.167 253.785 307.5C238.452 354.833 224.618 378.5 212.285 378.5C207.285 378.5 200.785 375.833 192.785 370.5C184.785 364.833 179.452 358.333 176.785 351C174.118 343.333 168.952 327.667 161.285 304C143.618 249.667 126.952 204.667 111.285 169C108.952 179 105.785 193.167 101.785 211.5C98.1185 229.833 95.1185 244.333 92.7852 255C90.4518 265.333 87.6185 278 84.2852 293C80.9518 307.667 77.9518 319.333 75.2852 328C72.9518 336.667 70.2852 345.333 67.2852 354C61.9518 370.333 56.9518 378.5 52.2852 378.5C45.6185 378.5 36.9518 372.5 26.2852 360.5C15.6185 348.167 10.2852 337.667 10.2852 329C10.2852 320 19.7852 273.5 38.7852 189.5C58.1185 105.5 68.6185 52.8333 70.2852 31.5C71.2852 18.8333 75.1185 12.5 81.7852 12.5C87.4518 12.5 94.6185 15.8333 103.285 22.5C112.285 29.1666 119.952 37.3333 126.285 47C132.952 56.3333 144.785 87.1667 161.785 139.5C178.785 191.833 192.285 229.333 202.285 252C215.285 213.333 227.285 155 238.285 77C242.619 46 245.452 27.1666 246.785 20.5C248.118 13.5 251.285 9.99997 256.285 9.99997Z"/>
</mask>
<path d="M256.285 9.99997C265.952 9.99997 276.619 15 288.285 25C300.285 35 306.285 43.1666 306.285 49.5C306.285 70.5 301.285 107 291.285 159C281.618 210.667 269.118 260.167 253.785 307.5C238.452 354.833 224.618 378.5 212.285 378.5C207.285 378.5 200.785 375.833 192.785 370.5C184.785 364.833 179.452 358.333 176.785 351C174.118 343.333 168.952 327.667 161.285 304C143.618 249.667 126.952 204.667 111.285 169C108.952 179 105.785 193.167 101.785 211.5C98.1185 229.833 95.1185 244.333 92.7852 255C90.4518 265.333 87.6185 278 84.2852 293C80.9518 307.667 77.9518 319.333 75.2852 328C72.9518 336.667 70.2852 345.333 67.2852 354C61.9518 370.333 56.9518 378.5 52.2852 378.5C45.6185 378.5 36.9518 372.5 26.2852 360.5C15.6185 348.167 10.2852 337.667 10.2852 329C10.2852 320 19.7852 273.5 38.7852 189.5C58.1185 105.5 68.6185 52.8333 70.2852 31.5C71.2852 18.8333 75.1185 12.5 81.7852 12.5C87.4518 12.5 94.6185 15.8333 103.285 22.5C112.285 29.1666 119.952 37.3333 126.285 47C132.952 56.3333 144.785 87.1667 161.785 139.5C178.785 191.833 192.285 229.333 202.285 252C215.285 213.333 227.285 155 238.285 77C242.619 46 245.452 27.1666 246.785 20.5C248.118 13.5 251.285 9.99997 256.285 9.99997Z" fill="#002C9B"/>
<path d="M288.285 25L281.777 32.5925L281.83 32.6377L281.883 32.6822L288.285 25ZM291.285 159L281.465 157.112L281.46 157.136L281.456 157.161L291.285 159ZM253.785 307.5L263.298 310.582L263.298 310.582L253.785 307.5ZM192.785 370.5L187.005 378.66L187.12 378.742L187.238 378.821L192.785 370.5ZM176.785 351L167.34 354.285L167.363 354.351L167.387 354.417L176.785 351ZM161.285 304L170.798 300.918L170.795 300.908L161.285 304ZM111.285 169L120.441 164.978L108.368 137.494L101.547 166.728L111.285 169ZM101.785 211.5L92.015 209.368L91.9964 209.453L91.9794 209.539L101.785 211.5ZM92.7852 255L102.54 257.203L102.547 257.17L102.554 257.137L92.7852 255ZM84.2852 293L94.0365 295.216L94.0418 295.193L94.047 295.169L84.2852 293ZM75.2852 328L65.7274 325.059L65.6752 325.229L65.629 325.4L75.2852 328ZM67.2852 354L57.8353 350.729L57.8065 350.812L57.7791 350.896L67.2852 354ZM26.2852 360.5L18.7215 367.042L18.7659 367.093L18.8111 367.144L26.2852 360.5ZM38.7852 189.5L29.0399 187.257L29.0357 187.275L29.0316 187.294L38.7852 189.5ZM70.2852 31.5L60.3162 30.713L60.3155 30.7211L70.2852 31.5ZM103.285 22.5L97.188 30.4262L97.26 30.4815L97.3329 30.5356L103.285 22.5ZM126.285 47L117.921 52.4802L118.031 52.6486L118.148 52.8123L126.285 47ZM161.785 139.5L171.296 136.41L171.296 136.41L161.785 139.5ZM202.285 252L193.136 256.036L203.545 279.631L211.764 255.187L202.285 252ZM238.285 77L248.187 78.3964L248.189 78.3844L238.285 77ZM246.785 20.5L256.591 22.4611L256.6 22.4162L256.609 22.3711L246.785 20.5ZM256.285 9.99997V20C262.507 20 270.914 23.2814 281.777 32.5925L288.285 25L294.793 17.4074C282.323 6.7186 269.396 -2.98023e-05 256.285 -2.98023e-05V9.99997ZM288.285 25L281.883 32.6822C287.558 37.4111 291.39 41.3653 293.726 44.5457C296.164 47.8641 296.285 49.4 296.285 49.5H306.285H316.285C316.285 43.2667 313.406 37.5525 309.844 32.7042C306.181 27.718 301.012 22.5889 294.687 17.3178L288.285 25ZM306.285 49.5H296.285C296.285 69.4343 291.472 105.076 281.465 157.112L291.285 159L301.105 160.888C311.098 108.924 316.285 71.5657 316.285 49.5H306.285ZM291.285 159L281.456 157.161C271.863 208.43 259.466 257.514 244.272 304.418L253.785 307.5L263.298 310.582C278.771 262.819 291.374 212.903 301.115 160.839L291.285 159ZM253.785 307.5L244.272 304.418C236.679 327.858 229.649 344.802 223.277 355.704C220.082 361.169 217.321 364.645 215.109 366.646C212.891 368.651 212.003 368.5 212.285 368.5V378.5V388.5C218.734 388.5 224.2 385.39 228.524 381.479C232.853 377.564 236.821 372.165 240.544 365.796C248.005 353.031 255.558 334.475 263.298 310.582L253.785 307.5ZM212.285 378.5V368.5C210.376 368.5 205.966 367.269 198.332 362.179L192.785 370.5L187.238 378.821C195.604 384.398 204.194 388.5 212.285 388.5V378.5ZM192.785 370.5L198.565 362.34C191.798 357.546 187.995 352.564 186.183 347.583L176.785 351L167.387 354.417C170.909 364.102 177.772 372.12 187.005 378.66L192.785 370.5ZM176.785 351L186.23 347.715C183.605 340.167 178.471 324.604 170.798 300.918L161.285 304L151.772 307.082C159.433 330.73 164.632 346.5 167.34 354.285L176.785 351ZM161.285 304L170.795 300.908C153.068 246.39 136.287 201.053 120.441 164.978L111.285 169L102.129 173.022C117.617 208.28 134.169 252.943 151.775 307.092L161.285 304ZM111.285 169L101.547 166.728C99.197 176.798 96.0184 191.02 92.015 209.368L101.785 211.5L111.555 213.632C115.552 195.314 118.707 181.202 121.024 171.272L111.285 169ZM101.785 211.5L91.9794 209.539C88.3175 227.848 85.3309 242.282 83.0162 252.863L92.7852 255L102.554 257.137C104.906 246.385 107.92 231.818 111.591 213.461L101.785 211.5ZM92.7852 255L83.0308 252.797C80.6941 263.146 77.8581 275.824 74.5233 290.831L84.2852 293L94.047 295.169C97.3789 280.176 100.21 267.521 102.54 257.203L92.7852 255ZM84.2852 293L74.5338 290.784C71.225 305.343 68.2885 316.735 65.7274 325.059L75.2852 328L84.8429 330.941C87.6151 321.931 90.6786 309.991 94.0365 295.216L84.2852 293ZM75.2852 328L65.629 325.4C63.3579 333.836 60.7604 342.279 57.8353 350.729L67.2852 354L76.735 357.271C79.81 348.388 82.5458 339.497 84.9413 330.6L75.2852 328ZM67.2852 354L57.7791 350.896C55.1958 358.807 52.8987 364.063 51.0066 367.153C50.5568 367.888 50.177 368.422 49.8775 368.795C49.73 368.978 49.6122 369.111 49.5263 369.201C49.4838 369.245 49.451 369.277 49.4282 369.299C49.4054 369.32 49.3939 369.33 49.3941 369.33C49.3944 369.33 49.4077 369.318 49.4345 369.299C49.4613 369.279 49.5031 369.249 49.56 369.213C49.6731 369.14 49.8535 369.037 50.1019 368.93C50.6205 368.707 51.3709 368.5 52.2852 368.5V378.5V388.5C56.5387 388.5 59.9317 386.609 62.3012 384.608C64.631 382.639 66.5116 380.132 68.0637 377.597C71.1716 372.52 74.0412 365.526 76.7912 357.104L67.2852 354ZM52.2852 378.5V368.5C51.8557 368.5 50.0346 368.241 46.4773 365.778C43.0445 363.402 38.8082 359.536 33.7593 353.856L26.2852 360.5L18.8111 367.144C24.4288 373.464 29.8591 378.598 35.0931 382.222C40.2024 385.759 46.048 388.5 52.2852 388.5V378.5ZM26.2852 360.5L33.8488 353.958C23.5394 342.038 20.2852 333.899 20.2852 329H10.2852H0.285157C0.285157 341.434 7.6976 354.295 18.7215 367.042L26.2852 360.5ZM10.2852 329H20.2852C20.2852 327.75 20.7067 324.012 21.9231 316.906C23.0845 310.12 24.8418 300.957 27.2078 289.377C31.9369 266.229 39.044 233.683 48.5388 191.706L38.7852 189.5L29.0316 187.294C19.5264 229.317 12.3834 262.021 7.61254 285.373C5.22848 297.043 3.42328 306.442 2.20976 313.532C1.05112 320.301 0.285157 325.75 0.285157 329H10.2852ZM38.7852 189.5L48.5304 191.743C67.8003 108.018 78.5171 54.5214 80.2548 32.2789L70.2852 31.5L60.3155 30.7211C58.7199 51.1452 48.4367 102.982 29.0399 187.257L38.7852 189.5ZM70.2852 31.5L80.2541 32.287C80.7076 26.543 81.74 23.6262 82.4652 22.428C82.757 21.9458 82.8162 22.0484 82.4813 22.2504C82.1 22.4804 81.7743 22.5 81.7852 22.5V12.5V2.49997C74.5134 2.49997 68.8437 6.30821 65.3552 12.072C62.247 17.2071 60.8627 23.7903 60.3162 30.713L70.2852 31.5ZM81.7852 12.5V22.5C83.9743 22.5 88.8822 24.0371 97.188 30.4262L103.285 22.5L109.382 14.5738C100.355 7.6295 90.9294 2.49997 81.7852 2.49997V12.5ZM103.285 22.5L97.3329 30.5356C105.354 36.4772 112.213 43.7691 117.921 52.4802L126.285 47L134.65 41.5197C127.69 30.8975 119.216 21.8561 109.237 14.4644L103.285 22.5ZM126.285 47L118.148 52.8123C120.623 56.2782 124.842 65.1207 130.824 80.708C136.651 95.8904 143.798 116.495 152.274 142.589L161.785 139.5L171.296 136.41C162.772 110.171 155.503 89.1929 149.496 73.542C143.645 58.2959 138.614 47.0551 134.422 41.1876L126.285 47ZM161.785 139.5L152.274 142.589C169.284 194.954 182.916 232.87 193.136 256.036L202.285 252L211.434 247.964C201.655 225.797 188.286 188.713 171.296 136.41L161.785 139.5ZM202.285 252L211.764 255.187C225.065 215.624 237.165 156.554 248.187 78.3964L238.285 77L228.383 75.6035C217.405 153.446 205.505 211.042 192.807 248.813L202.285 252ZM238.285 77L248.189 78.3844C252.541 47.249 255.329 28.7696 256.591 22.4611L246.785 20.5L236.979 18.5388C235.574 25.5637 232.696 44.7509 228.381 75.6156L238.285 77ZM246.785 20.5L256.609 22.3711C256.838 21.1648 257.102 20.3539 257.32 19.8454C257.536 19.3416 257.662 19.2388 257.576 19.3341C257.462 19.4593 257.203 19.6827 256.818 19.8477C256.447 20.0067 256.22 20 256.285 20V9.99997V-2.98023e-05C251.149 -2.98023e-05 246.347 1.93414 242.745 5.91583C239.455 9.55204 237.809 14.1785 236.962 18.6289L246.785 20.5Z" fill="#002C9B" mask="url(#path-1-outside-1_1_1066)"/>
</svg>
