<?xml version="1.0" encoding="UTF-8"?>
<svg version="1.1" xmlns="http://www.w3.org/2000/svg" width="1024" height="1024">
<path d="M0 0 C337.92 0 675.84 0 1024 0 C1024 337.92 1024 675.84 1024 1024 C686.08 1024 348.16 1024 0 1024 C0 686.08 0 348.16 0 0 Z " fill="#000000" transform="translate(0,0)"/>
<path d="M0 0 C337.92 0 675.84 0 1024 0 C1024 337.92 1024 675.84 1024 1024 C686.08 1024 348.16 1024 0 1024 C0 686.08 0 348.16 0 0 Z M138.375 163.04296875 C132.79864996 171.35770497 131.5563117 179.69891828 131.61688995 189.53475571 C131.61193044 190.67245592 131.60697092 191.81015613 131.60186112 192.98233211 C131.58889722 196.79853601 131.59729258 200.61439048 131.60559082 204.43060303 C131.6023598 207.1927302 131.5946334 209.9548408 131.58713293 212.71695924 C131.5732297 218.72446622 131.5704843 224.7318979 131.57509232 230.73941803 C131.58192696 239.6730264 131.57166353 248.60655858 131.55813476 257.54015636 C131.53322306 274.42445984 131.52870584 291.30873169 131.53060073 308.19305059 C131.53197376 321.23191776 131.52815633 334.27077396 131.52067566 347.30963898 C131.51962532 349.18289072 131.51857771 351.05614246 131.5175328 352.9293942 C131.51701345 353.85926987 131.51649411 354.78914554 131.51595903 355.74719926 C131.51543888 356.67877698 131.51491874 357.6103547 131.51438284 358.57016206 C131.51385885 359.50329958 131.51333486 360.43643711 131.51279498 361.39785153 C131.49821106 387.64426143 131.48992946 413.89066729 131.49454498 440.13708115 C131.49471694 441.12657554 131.49488889 442.11606993 131.49506606 443.135549 C131.49595495 448.15069607 131.49689976 453.16584313 131.49786407 458.18099019 C131.4980551 459.17701314 131.49824613 460.17303609 131.49844296 461.19924156 C131.49883005 463.21344238 131.49922038 465.2276432 131.49961393 467.24184402 C131.50558358 498.58085587 131.49014748 529.91979387 131.45800781 561.25878906 C131.42192816 596.46946931 131.40259857 631.68010273 131.40754652 666.89080262 C131.4080165 670.64556773 131.40842675 674.40033284 131.40879822 678.15509796 C131.4089006 679.07961378 131.40900299 680.0041296 131.40910848 680.95666105 C131.41030313 694.91090488 131.39833836 708.86509811 131.37965393 722.81932831 C131.35841252 738.690873 131.35457155 754.56231156 131.37395352 770.43386099 C131.38427673 779.31396398 131.38081738 788.19380807 131.35742267 797.07388763 C131.3431729 803.00939401 131.34717766 808.94470916 131.36586843 814.8802027 C131.37600206 818.259727 131.37562502 821.63833775 131.35854775 825.01789495 C131.12571784 849.01289944 131.12571784 849.01289944 143.61328125 868.84375 C153.69338104 877.950485 163.6585179 880.46342683 177.0694418 880.38031673 C178.84446824 880.38730661 178.84446824 880.38730661 180.65535381 880.3944377 C183.92772847 880.40430013 187.19976888 880.40082113 190.47213512 880.39160402 C194.0368854 880.38487658 197.60159151 880.39556916 201.1663323 880.40399987 C207.4100108 880.41636055 213.65361413 880.41758179 219.89730072 880.41144943 C229.18196259 880.4023547 238.46655502 880.41039333 247.75121157 880.42174067 C264.33437652 880.44140777 280.91751022 880.44375494 297.50068405 880.43854547 C312.01350211 880.43398863 326.52630779 880.43458707 341.03912544 880.44038582 C342.98571188 880.44114268 344.93229831 880.44189866 346.87888475 880.44265376 C349.81219381 880.44379895 352.74550287 880.44494883 355.67881193 880.44611301 C382.95013358 880.45681813 410.2214511 880.46154309 437.49277401 880.45364285 C438.52080719 880.45334567 439.54884037 880.4530485 440.60802607 880.45274232 C448.95643605 880.45029337 457.30484599 880.44768179 465.65325592 880.44505819 C498.22092392 880.43495476 530.78854036 880.44331293 563.35620117 880.46655273 C599.94573895 880.49262024 636.5352457 880.50547471 673.12479311 880.49836498 C677.02554833 880.49764892 680.92630356 880.49697453 684.82705879 880.49632454 C685.78752487 880.49615473 686.74799095 880.49598492 687.73756206 880.49580997 C702.24047302 880.49350632 716.74335518 880.50148708 731.24625969 880.51461601 C747.7377933 880.52951855 764.22925936 880.53038202 780.72079151 880.5125451 C789.95010229 880.50297397 799.17925556 880.50443356 808.40855586 880.52177979 C814.5742475 880.53225907 820.73981901 880.52818329 826.9054988 880.51229975 C830.41794563 880.50365761 833.93008355 880.50126824 837.44251465 880.51656907 C841.2302061 880.52968797 845.0170618 880.51819928 848.80471706 880.50057125 C850.43202027 880.51504702 850.43202027 880.51504702 852.09219828 880.52981523 C863.78466992 880.41793884 874.09951378 876.39748951 882.71484375 868.41015625 C888.86272807 861.76168084 893.12074069 853.321205 893.12880117 844.20582902 C893.13370946 842.7513041 893.13370946 842.7513041 893.13871691 841.26739484 C893.13723328 840.20264123 893.13574966 839.13788763 893.13422108 838.04086876 C893.13657331 836.90466223 893.13892554 835.7684557 893.14134905 834.59781867 C893.14687826 831.42980267 893.14791015 828.26182123 893.14707164 825.09380165 C893.14724101 821.65252356 893.1531457 818.21125458 893.1583125 814.76998103 C893.16764561 807.93819861 893.17156174 801.10642267 893.17383147 794.27463467 C893.17679167 786.0941017 893.18548799 777.91357735 893.19424575 769.73304889 C893.2150982 749.95924008 893.22556105 730.18542976 893.23437535 710.41161251 C893.23858056 701.05937739 893.24380271 691.70714292 893.24905988 682.35490835 C893.26695042 650.34855251 893.28194713 618.3421965 893.28938007 586.33583641 C893.28985483 584.326161 893.29033072 582.31648559 893.29080774 580.30681018 C893.29104411 579.31018102 893.29128049 578.31355186 893.29152403 577.28672181 C893.29272524 572.23720907 893.29394068 567.18769633 893.29516602 562.13818359 C893.29552624 560.63504086 893.29552624 560.63504086 893.29589374 559.10153161 C893.30378818 526.60492819 893.32722283 494.10836126 893.35972196 461.61177377 C893.39400982 427.26396436 893.41373023 392.91617629 893.41702431 358.56834948 C893.41744186 354.79867529 893.41792143 351.02900111 893.41844749 347.25932693 C893.41857069 346.33111004 893.41869388 345.40289315 893.4188208 344.44654848 C893.42115408 329.50072669 893.43682114 314.55494724 893.45728934 299.60914055 C893.47753225 284.58970087 893.4830319 269.57031209 893.47351871 254.55086128 C893.46829784 245.62574694 893.47420886 236.70080194 893.49605338 227.77571193 C893.50954362 221.81386392 893.50850022 215.85213272 893.49565142 209.89028359 C893.48874277 206.4932506 893.49033357 203.09680581 893.50521151 199.69975905 C893.52025958 196.03760681 893.51070552 192.37630887 893.49498463 188.71417809 C893.50520683 187.66347148 893.51542904 186.61276487 893.52596101 185.53021866 C893.41815461 174.04802694 889.11710838 165.20594605 881.1171875 157.08984375 C874.36977894 150.85841349 867.32774312 146.88032854 858.02218151 146.87004817 C857.01144158 146.86651975 856.00070165 146.86299133 854.95933324 146.85935599 C853.29327135 146.86115265 853.29327135 146.86115265 851.59355164 146.86298561 C849.81669638 146.85900787 849.81669638 146.85900787 848.00394505 146.85494977 C844.70026938 146.84858666 841.3966456 146.8467205 838.09296736 146.846727 C834.50460823 146.84565837 830.91625922 146.8388687 827.32790565 146.8328203 C820.20371216 146.82174026 813.07952359 146.81609496 805.955323 146.81211142 C797.42471089 146.8071043 788.89410836 146.79637708 780.3635019 146.78562968 C759.74258572 146.75999272 739.12166581 146.74496276 718.50073827 146.73211922 C711.67129123 146.72786513 704.84184447 146.72329942 698.01239777 146.7185359 C661.70695739 146.69327639 625.40151657 146.67122624 589.09606934 146.65880775 C580.68334959 146.65588638 572.27062987 146.65291887 563.85791016 146.64990234 C562.81272608 146.64953143 561.76754201 146.64916053 560.69068569 146.64877838 C526.80150139 146.63662222 492.91236902 146.60567734 459.02320911 146.56398082 C424.18900775 146.52119965 389.35483382 146.49456757 354.52060547 146.48933304 C349.60119016 146.48859259 344.68177489 146.4876819 339.76235962 146.48667526 C338.31006951 146.48638934 338.31006951 146.48638934 336.8284402 146.48609764 C321.24327772 146.48258327 305.65818025 146.4622817 290.07304166 146.43587863 C274.40832231 146.40974082 258.74367813 146.40200369 243.07894009 146.41297992 C233.77206604 146.41895873 224.46544683 146.41103452 215.15861132 146.38314908 C208.93974429 146.36589458 202.72105101 146.36684826 196.50218026 146.38251677 C192.96001484 146.39092588 189.41833564 146.39152113 185.87621534 146.36990531 C182.05476879 146.35081597 178.23459497 146.36257987 174.41317749 146.38196754 C172.77520959 146.36269371 172.77520959 146.36269371 171.10415143 146.34303051 C157.4858048 146.49487016 146.79403898 152.4584558 138.375 163.04296875 Z " fill="#FEFEFE" transform="translate(0,0)"/>
<path d="M0 0 C0 144.21 0 288.42 0 437 C-28.05 437 -56.1 437 -85 437 C-87.97 433.37 -90.94 429.74 -94 426 C-96.60359749 422.84984581 -96.60359749 422.84984581 -99.20898438 419.70117188 C-104.50235285 413.30320834 -109.72076346 406.86001839 -114.81811523 400.30493164 C-118.43650012 395.67021307 -122.17755267 391.14521389 -125.9375 386.625 C-130.99641289 380.53329154 -135.82646574 374.31784762 -140.53100586 367.94970703 C-144.06195822 363.19143707 -147.73657415 358.57605347 -151.5 354 C-156.37303456 348.07098414 -161.04298793 342.02430797 -165.61889648 335.86376953 C-170.18691352 329.72028814 -174.90138651 323.70117207 -179.65429688 317.70019531 C-181.87988616 314.88832961 -184.0965285 312.06944782 -186.3125 309.25 C-186.75859619 308.68265137 -187.20469238 308.11530273 -187.66430664 307.53076172 C-192.06350366 301.93009357 -196.43177253 296.30548768 -200.80126953 290.68164062 C-205.30302685 284.88996381 -209.82502346 279.11466728 -214.36328125 273.3515625 C-216.13627175 271.1000418 -217.90412755 268.84463236 -219.66796875 266.5859375 C-224.63299083 260.23440898 -229.65652086 253.9366302 -234.75 247.6875 C-242.41929192 238.26635078 -242.41929192 238.26635078 -245.3125 234.625 C-245.84488281 233.95726562 -246.37726563 233.28953125 -246.92578125 232.6015625 C-248 231 -248 231 -248 229 C-248.66 229 -249.32 229 -250 229 C-250 271.9 -250 314.8 -250 359 C-281.0090633 372.78180591 -281.0090633 372.78180591 -295.5 378.75 C-297.80454839 379.70325536 -300.10866592 380.6575468 -302.41275024 381.61192322 C-303.90214294 382.22875912 -305.39170096 382.84519601 -306.88143921 383.4611969 C-311.07801687 385.19770661 -315.26611912 386.95238986 -319.4453125 388.73046875 C-320.34443359 389.11299805 -321.24355469 389.49552734 -322.16992188 389.88964844 C-323.74798536 390.5631815 -325.32491001 391.23939252 -326.90039062 391.91894531 C-331.78222767 394 -331.78222767 394 -334 394 C-334 295.66 -334 197.32 -334 96 C-305.29 96 -276.58 96 -247 96 C-242.38 101.94 -237.76 107.88 -233 114 C-230.14997883 117.66082615 -230.14997883 117.66082615 -227.29980469 121.3215332 C-220.38382902 130.20618689 -213.51000782 139.12195647 -206.65625 148.0546875 C-200.07724491 156.62021036 -193.45011691 165.14775093 -186.81445312 173.66943359 C-183.29437547 178.19078199 -179.77733776 182.71449524 -176.25976562 187.23779297 C-173.29400788 191.05126591 -170.32744749 194.86410954 -167.359375 198.67578125 C-161.42016436 206.30459492 -155.49764033 213.94506643 -149.609375 221.61328125 C-144.10577055 228.76753773 -138.54585115 235.87848858 -133 243 C-124.18175909 254.32363665 -115.3928789 265.66794784 -106.65625 277.0546875 C-99.47711554 286.40154763 -92.23630966 295.6961733 -85 305 C-84.67 215.9 -84.34 126.8 -84 35 C-77.31929098 31.65964549 -70.76663674 28.54675406 -63.875 25.7421875 C-62.93722717 25.35675278 -61.99945435 24.97131805 -61.03326416 24.57420349 C-58.02354379 23.33777186 -55.01180196 22.10635124 -52 20.875 C-47.86900553 19.18029665 -43.73908677 17.4829826 -39.609375 15.78515625 C-38.60146912 15.37112045 -37.59356323 14.95708466 -36.55511475 14.53050232 C-27.36399373 10.74992478 -18.21057588 6.88529795 -9.0859375 2.94677734 C-8.15523437 2.54797363 -7.22453125 2.14916992 -6.265625 1.73828125 C-5.47961914 1.39837158 -4.69361328 1.05846191 -3.88378906 0.70825195 C-2 0 -2 0 0 0 Z " fill="#002C9B" transform="translate(680,292)"/>
<path d="M0 0 C-2.31 1.32 -4.62 2.64 -7 4 C-7.99 3.34 -8.98 2.68 -10 2 C-3.375 -1.125 -3.375 -1.125 0 0 Z " fill="#0030AE" transform="translate(619,319)"/>
</svg>
