<svg width="503" height="503" viewBox="0 0 503 503" fill="none" xmlns="http://www.w3.org/2000/svg">
<circle cx="251.5" cy="251.5" r="251.5" fill="white"/>
<path d="M349 62C360.372 62 372.151 67.8427 384.201 78.1592L385.341 79.1182C390.962 83.8976 395.406 88.4137 398.529 92.665C401.81 97.1308 404 101.8 404 106.5C404 128.029 398.907 164.95 388.914 216.919C379.21 268.784 366.66 318.493 351.257 366.041C343.553 389.821 336.13 407.974 328.941 420.273C325.351 426.416 321.685 431.334 317.885 434.771C314.087 438.205 309.766 440.5 305 440.5C298.454 440.5 290.909 437.115 282.727 431.66L282.668 431.621L282.61 431.58C273.994 425.477 267.895 418.218 264.801 409.709L264.777 409.643C262.09 401.916 256.907 386.198 249.243 362.541V362.54C233.865 315.246 219.268 275.106 205.455 242.093C203.714 249.846 201.696 258.974 199.403 269.48L198.058 276.182C194.992 291.399 192.435 303.698 190.385 313.068L190.377 313.102C188.045 323.427 185.213 336.088 181.881 351.085L181.878 351.097L181.876 351.108C178.54 365.786 175.515 377.564 172.802 386.394C170.451 395.117 167.768 403.836 164.753 412.552C162.045 420.846 159.319 427.406 156.515 431.985C155.114 434.274 153.558 436.294 151.789 437.788C150 439.299 147.71 440.5 145 440.5C140.215 440.5 135.376 438.38 130.654 435.111C125.871 431.8 120.738 426.982 115.263 420.822L115.24 420.797L115.218 420.771C104.373 408.231 98 396.55 98 386C98 383.25 98.6795 378.228 99.8525 371.375C101.053 364.362 102.847 355.021 105.227 343.374C109.987 320.073 117.12 287.408 126.623 245.396L126.627 245.379C145.992 161.241 156.384 108.989 158.016 88.1104V88.1064C158.539 81.4785 159.835 75.812 162.348 71.6611C165.05 67.1959 169.197 64.5 174.5 64.5C181.885 64.5 190.156 68.7092 198.977 75.4824L199.861 76.1455C208.952 83.0383 216.716 91.4028 223.148 101.208C226.899 106.514 231.701 117.112 237.543 132.334C243.505 147.868 250.744 168.752 259.256 194.955C273.417 238.55 285.107 271.711 294.333 294.527C305.643 256.618 316.23 202.927 326.049 133.302C330.372 102.373 333.228 83.365 334.597 76.5195C335.356 72.562 336.74 68.9535 339.167 66.2705C341.76 63.4047 345.182 62 349 62Z" fill="#002C9B" stroke="#002C9B" stroke-width="10"/>
</svg>
